<?xml version="1.0" encoding="utf-8"?>
<svg xmlns="http://www.w3.org/2000/svg" width="459" height="86" viewBox="0 0 459 86" fill="none">
<g clip-path="url(#clip0_307_5810)">
<mask id="mask0_307_5810" style="mask-type:luminance" maskUnits="userSpaceOnUse" x="0" y="0" width="459" height="86">
<path d="M458.029 0.5H0.0292969V85.5H458.029V0.5Z" fill="white"/>
</mask>
<g mask="url(#mask0_307_5810)">
<path d="M12.3993 53.5801H2.3693C1.0893 53.5801 0.0292969 54.6401 0.0292969 55.9401V83.1601C0.0292969 84.4601 1.0893 85.5201 2.3693 85.5201H38.3793C40.4493 85.5201 41.4993 83.0301 40.0593 81.5201L14.1093 54.3101C13.6593 53.8601 13.0493 53.6001 12.4293 53.6001L12.3993 53.5801Z" fill="#01D9C1"/>
<path d="M66.1283 1.2L29.9783 37.73C29.0883 38.63 29.0583 40.08 29.9283 41L70.1683 84.74C70.6183 85.23 71.2483 85.49 71.8883 85.49H81.8283C83.1083 85.49 84.1683 84.43 84.1683 83.13V2.86C84.1683 1.56 83.1083 0.5 81.8283 0.5H67.7983C67.1683 0.5 66.5783 0.740001 66.1283 1.2Z" fill="#01D9C1"/>
<path d="M0.0292969 2.86024V31.1702C0.0292969 32.4702 1.0893 33.5302 2.3693 33.5302H5.7893C6.4093 33.5302 7.0193 33.2902 7.4593 32.8302L35.3293 4.52024C36.8093 3.03024 35.7493 0.490234 33.6593 0.490234H2.3693C1.0893 0.500234 0.0292969 1.56024 0.0292969 2.86024Z" fill="#01D9C1"/>
<path d="M442.029 38.0404C434.849 36.5504 433.679 35.3604 433.679 33.0904C433.679 29.7204 436.389 27.7704 441.089 27.7704C444.299 27.7704 448.849 28.5004 452.959 29.7004C453.569 29.8704 454.209 29.5304 454.379 28.9404L455.839 24.3304C456.029 23.7204 455.699 23.0604 455.089 22.8504C451.009 21.4804 445.689 20.6304 441.189 20.6304C431.909 20.6304 425.919 25.6004 425.919 33.2804C425.919 40.9604 431.159 43.3604 439.039 44.9904L440.219 45.2304C447.159 46.6604 450.419 47.7304 450.419 51.4204C450.419 54.9004 447.329 56.9604 442.159 56.9604C437.979 56.9604 432.949 55.9204 428.359 54.0904C428.059 53.9704 427.719 53.9904 427.439 54.1104C427.139 54.2504 426.919 54.4904 426.829 54.8104L425.249 59.6104C425.059 60.2204 425.349 60.8604 425.929 61.0904C430.979 63.0504 436.979 64.2404 441.999 64.2404C451.729 64.2404 458.019 59.0604 458.019 51.0804C458.019 42.2004 450.779 39.9404 442.039 38.0604H442.019V38.0404H442.029Z" fill="white"/>
<path d="M402.81 38.0404C395.63 36.5504 394.46 35.3604 394.46 33.0904C394.46 29.7504 397.24 27.7704 401.89 27.7704C405.1 27.7704 409.65 28.5004 413.76 29.7004C414.37 29.8704 415.01 29.5304 415.2 28.9404L416.66 24.3304C416.85 23.7204 416.52 23.0604 415.91 22.8504C411.83 21.4804 406.51 20.6304 402.01 20.6304C392.73 20.6304 386.74 25.6004 386.74 33.2804C386.74 40.9604 391.98 43.3604 399.86 44.9904L401.04 45.2304C407.98 46.6604 411.24 47.7304 411.24 51.4204C411.24 54.9004 408.15 56.9604 402.98 56.9604C398.8 56.9604 393.77 55.9204 389.17 54.0904C388.86 53.9704 388.53 53.9904 388.25 54.1104C387.95 54.2504 387.73 54.4904 387.64 54.8104L386.06 59.6104C385.87 60.2204 386.16 60.8604 386.74 61.0904C391.79 63.0504 397.79 64.2404 402.81 64.2404C412.55 64.2404 418.81 59.0604 418.81 51.0804C418.81 42.2004 411.57 39.9404 402.83 38.0604L402.81 38.0404Z" fill="white"/>
<path d="M374.939 21.29H347.119C346.479 21.29 345.939 21.83 345.939 22.47V62.18C345.939 62.82 346.459 63.36 347.119 63.36H374.939C375.579 63.36 376.119 62.82 376.119 62.18V57.31C376.119 56.67 375.599 56.13 374.939 56.13H353.469V45.95H372.579C373.219 45.95 373.759 45.41 373.759 44.77V39.85C373.759 39.21 373.239 38.67 372.579 38.67H353.469V28.48H374.939C375.579 28.48 376.119 27.94 376.119 27.3V22.43C376.119 21.79 375.599 21.25 374.939 21.25V21.29Z" fill="white"/>
<path d="M336.499 56.2H316.339V22.47C316.339 21.83 315.819 21.29 315.159 21.29H309.989C309.349 21.29 308.809 21.83 308.809 22.47V62.18C308.809 62.82 309.329 63.36 309.989 63.36H336.509C337.149 63.36 337.689 62.82 337.689 62.18V57.38C337.679 56.74 337.159 56.2 336.499 56.2Z" fill="white"/>
<path d="M299.889 21.29H293.989C293.589 21.29 293.229 21.5 293.019 21.83L280.749 40.49L268.519 21.84C268.289 21.51 267.929 21.3 267.529 21.3H261.559C261.129 21.3 260.739 21.54 260.539 21.91C260.349 22.29 260.349 22.76 260.589 23.11L276.999 48.34V62.17C276.999 62.81 277.519 63.35 278.179 63.35H283.349C283.989 63.35 284.529 62.81 284.529 62.17V48.34L300.889 23.11C301.129 22.75 301.149 22.28 300.939 21.91C300.749 21.53 300.349 21.3 299.919 21.3L299.889 21.29Z" fill="white"/>
<path d="M249.68 21.29H221.86C221.22 21.29 220.68 21.83 220.68 22.47V62.18C220.68 62.82 221.2 63.36 221.86 63.36H249.68C250.32 63.36 250.86 62.82 250.86 62.18V57.31C250.86 56.67 250.34 56.13 249.68 56.13H228.21V45.95H247.32C247.96 45.95 248.5 45.41 248.5 44.77V39.85C248.5 39.21 247.98 38.67 247.32 38.67H228.21V28.48H249.68C250.32 28.48 250.86 27.94 250.86 27.3V22.43C250.86 21.79 250.34 21.25 249.68 21.25V21.29Z" fill="white"/>
<path d="M194.549 41.9503L211.419 23.2503C211.729 22.9003 211.819 22.4203 211.609 21.9803C211.419 21.5503 211.019 21.2803 210.529 21.2803H203.939C203.609 21.2803 203.299 21.4203 203.069 21.6603L186.739 39.7903C186.639 39.9103 186.459 39.9803 186.309 39.9803H185.059V22.4703C185.059 21.8303 184.539 21.2903 183.879 21.2903H178.709C178.069 21.2903 177.529 21.8303 177.529 22.4703V62.1803C177.529 62.8203 178.049 63.3603 178.709 63.3603H183.879C184.519 63.3603 185.059 62.8203 185.059 62.1803V47.3703H189.379L204.529 62.9903C204.759 63.2203 205.049 63.3403 205.379 63.3403H212.059C212.529 63.3403 212.939 63.0603 213.139 62.6303C213.329 62.2003 213.229 61.6903 212.909 61.3603L194.549 41.9503Z" fill="white"/>
<path d="M151.549 21.7C151.359 21.28 150.939 21 150.469 21H145.889C145.439 21 145.009 21.28 144.809 21.7L126.879 61.71C126.719 62.07 126.759 62.49 126.969 62.84C127.179 63.19 127.559 63.38 127.959 63.38H133.759C134.229 63.38 134.649 63.1 134.839 62.67L138.639 53.96H157.759L161.609 62.67C161.799 63.09 162.219 63.37 162.689 63.37H168.429C168.829 63.37 169.209 63.16 169.419 62.83C169.649 62.48 169.659 62.08 169.509 61.7L151.579 21.69L151.549 21.7ZM141.779 46.78L148.179 32.29L154.549 46.78H141.779Z" fill="white"/>
</g>
</g>
<defs>
<clipPath id="clip0_307_5810">
<rect width="459" height="86" fill="white"/>
</clipPath>
</defs>
</svg>