<svg xmlns="http://www.w3.org/2000/svg" viewBox="0 0 24 24" fill="currentColor">
  <path d="M12 2a7 7 0 0 1 6.93 6H19a5 5 0 0 1 0 10H6a5 5 0 0 1-.35-9.98A7 7 0 0 1 12 2zm0 2a5 5 0 0 0-4.9 4.02L6.88 8.5 6.5 8.5A3 3 0 1 0 6.5 14H19a3 3 0 0 0 0-6h-1.1A5 5 0 0 0 12 4zm.5 2.5v.75c.97.2 1.75.9 1.75 1.75 0 .97-.78 1.5-2 1.5-.75 0-1-.2-1-.5s.25-.5 1-.5c.55 0 .75-.12.75-.25s-.2-.25-.75-.25C11.03 9 10 8.47 10 7.5c0-.85.78-1.55 1.75-1.75V5h1.5v.75c.97.2 1.75.9 1.75 1.75h-1.5c0-.28-.3-.5-.75-.5H12c-.45 0-.75.22-.75.5s.3.5 1 .5C13.72 8 14.75 8.53 14.75 9.5c0 .85-.78 1.55-1.75 1.75V12h-1.5v-.75C10.53 11.05 9.75 10.35 9.75 9.5h1.5z"/>
</svg>
